<svg width="180" height="72" viewBox="0 0 130 72" fill="none" xmlns="http://www.w3.org/2000/svg">
<path d="M19.4685 13.0843L7.28685 59.51C6.91709 60.9192 5.64345 61.9017 4.18655 61.9017C2.07613 61.9017 0.541681 59.8975 1.09231 57.8602L13.6152 11.5255C14.1785 9.44122 16.6795 8.59888 18.3889 9.91761C19.3521 10.6606 19.7773 11.9077 19.4685 13.0843Z" fill="#0052D4"/>
<path d="M19.7468 12.9366L31.9285 59.3622C32.2982 60.7714 33.5719 61.754 35.0288 61.754C37.1392 61.754 38.6737 59.7498 38.123 57.7124L25.6001 11.3777C25.0368 9.29345 22.5359 8.45111 20.8264 9.76984C19.8633 10.5128 19.4381 11.76 19.7468 12.9366Z" fill="#6FB1FC"/>
<rect x="14.2048" y="36.8923" width="11.5427" height="4.14355" rx="2.07177" fill="#4364F7"/>
<path d="M45.2947 47.9196H40.8386V27.6696H45.2947V47.9196ZM52.7302 47.9196H48.2742V33.655H52.7302V47.9196ZM48.0105 29.9767C48.0105 29.3439 48.239 28.8254 48.696 28.4211C49.1531 28.0168 49.7463 27.8146 50.4758 27.8146C51.2053 27.8146 51.7986 28.0168 52.2556 28.4211C52.7126 28.8254 52.9412 29.3439 52.9412 29.9767C52.9412 30.6096 52.7126 31.1281 52.2556 31.5324C51.7986 31.9367 51.2053 32.1389 50.4758 32.1389C49.7463 32.1389 49.1531 31.9367 48.696 31.5324C48.239 31.1281 48.0105 30.6096 48.0105 29.9767ZM73.3098 44.3337H66.9685L65.8611 47.9196H60.9172L67.9573 28.7243H72.3079L79.4006 47.9196H74.4304L73.3098 44.3337ZM68.0759 40.7609H72.2024L70.1326 34.1032L68.0759 40.7609ZM81.5891 47.9196V36.7399H79.5193V33.655H81.5891V32.5212C81.5891 30.8952 82.0681 29.634 83.0261 28.7375C83.9841 27.841 85.3289 27.3928 87.0603 27.3928C87.6931 27.3928 88.3875 27.485 89.1433 27.6696L89.1565 30.9391C88.884 30.86 88.5193 30.8205 88.0623 30.8205C86.7175 30.8205 86.0452 31.4006 86.0452 32.5607V33.655H88.8269V36.7399H86.0452V47.9196H81.5891ZM95.6296 44.4919H102.129V47.9196H90.0134V45.4411L96.3416 37.0827H90.2903V33.655H101.984V36.0544L95.6296 44.4919ZM112.32 47.9196C112.162 47.6296 112.021 47.2033 111.898 46.6408C111.081 47.6691 109.938 48.1833 108.47 48.1833C107.126 48.1833 105.983 47.779 105.043 46.9704C104.102 46.153 103.632 45.1291 103.632 43.8986C103.632 42.3517 104.203 41.1828 105.346 40.3918C106.489 39.6008 108.15 39.2053 110.329 39.2053H111.7V38.4538C111.7 37.1442 111.134 36.4894 110 36.4894C108.945 36.4894 108.418 37.008 108.418 38.0451H103.975C103.975 36.6652 104.559 35.5446 105.728 34.6833C106.906 33.822 108.405 33.3913 110.224 33.3913C112.043 33.3913 113.48 33.8351 114.535 34.7228C115.59 35.6105 116.13 36.8278 116.156 38.3747V44.6896C116.174 45.9992 116.376 47.0012 116.763 47.6955V47.9196H112.32ZM109.538 45.0192C110.092 45.0192 110.549 44.9006 110.909 44.6633C111.279 44.426 111.542 44.1579 111.7 43.8591V41.5783H110.408C108.862 41.5783 108.088 42.2726 108.088 43.6613C108.088 44.0656 108.224 44.3952 108.497 44.6501C108.769 44.8962 109.116 45.0192 109.538 45.0192ZM123.315 47.9196H118.859V27.6696H123.315V47.9196Z" fill="black"/>
</svg>
