<svg width="1390" height="973" viewBox="0 0 1390 973" fill="none" xmlns="http://www.w3.org/2000/svg">
<circle cx="1238.28" cy="883" r="36" fill="#0052D4"/>
<circle cx="712.28" cy="752" r="36" fill="#6FB1FC"/>
<circle cx="895.28" cy="937" r="36" fill="#4364F7"/>
<circle cx="562.44" cy="167" r="36" fill="#0052D4"/>
<circle cx="36.4399" cy="36" r="36" fill="#6FB1FC"/>
<circle cx="219.44" cy="221" r="36" fill="#4364F7"/>
<g filter="url(#filter0_d)">
<ellipse cx="1033.96" cy="514" rx="336" ry="350" fill="url(#paint0_linear)"/>
</g>
<path d="M1058.62 563.964C1058.72 564.059 1058.81 564.16 1058.9 564.266L1059.73 565.16L1062.9 568.687L1074.88 582.146L1117.31 630.153H1116.82L1164.95 572.305L1165.29 571.912L1165.56 572.351L1169.07 577.892L1205.48 635.422L1204.98 635.331L1239.98 605.991L1240.18 605.824L1240.36 606.021L1267.08 637.814L1274.29 646.488L1276.17 648.759C1276.59 649.274 1276.79 649.547 1276.79 649.547C1276.79 649.547 1276.54 649.304 1276.11 648.82L1274.21 646.488L1266.85 637.92L1239.95 606.354H1240.33L1205.41 635.891L1205.12 636.133L1204.91 635.8L1168.45 578.361L1164.92 572.805H1165.52C1148 593.849 1131.52 613.606 1117.32 630.653L1117.08 630.94L1116.83 630.653C1099.4 610.759 1084.82 594.136 1074.59 582.449L1062.76 568.823L1059.65 565.22C1059.32 564.811 1059.06 564.509 1058.86 564.282C1058.66 564.054 1058.6 563.979 1058.62 563.964Z" fill="#E6E6E6"/>
<path d="M1112.33 630.547C1112.32 631.599 1112.61 632.629 1113.17 633.507C1113.72 634.386 1114.51 635.072 1115.43 635.479C1116.35 635.885 1117.37 635.994 1118.36 635.791C1119.34 635.588 1120.24 635.082 1120.95 634.339C1121.66 633.595 1122.14 632.647 1122.34 631.615C1122.53 630.582 1122.43 629.513 1122.04 628.543C1121.65 627.573 1121 626.746 1120.16 626.167C1119.32 625.589 1118.34 625.284 1117.34 625.293C1116.01 625.301 1114.74 625.857 1113.81 626.841C1112.87 627.824 1112.34 629.156 1112.33 630.547Z" fill="#E0E0E0"/>
<path d="M1200.74 636.86C1200.74 637.909 1201.04 638.932 1201.6 639.8C1202.17 640.668 1202.96 641.343 1203.88 641.738C1204.81 642.133 1205.83 642.231 1206.81 642.019C1207.78 641.808 1208.68 641.296 1209.38 640.549C1210.08 639.803 1210.56 638.854 1210.75 637.824C1210.93 636.794 1210.83 635.729 1210.44 634.763C1210.05 633.798 1209.39 632.975 1208.56 632.4C1207.72 631.824 1206.74 631.522 1205.74 631.531C1204.41 631.543 1203.13 632.111 1202.19 633.11C1201.25 634.109 1200.73 635.457 1200.74 636.86Z" fill="#0052D4"/>
<path d="M1235.12 607.686C1235.13 608.731 1235.43 609.75 1235.99 610.614C1236.55 611.478 1237.35 612.148 1238.27 612.539C1239.19 612.931 1240.21 613.026 1241.18 612.814C1242.16 612.601 1243.05 612.09 1243.75 611.344C1244.44 610.599 1244.92 609.653 1245.1 608.627C1245.29 607.6 1245.18 606.539 1244.79 605.577C1244.4 604.615 1243.75 603.795 1242.92 603.222C1242.08 602.649 1241.11 602.348 1240.11 602.357C1238.78 602.373 1237.5 602.943 1236.57 603.941C1235.63 604.94 1235.11 606.286 1235.12 607.686Z" fill="#0052D4"/>
<path d="M1160.19 573.017C1160.2 574.066 1160.5 575.089 1161.06 575.957C1161.62 576.825 1162.41 577.5 1163.34 577.895C1164.27 578.29 1165.28 578.388 1166.26 578.176C1167.24 577.965 1168.14 577.453 1168.84 576.706C1169.54 575.96 1170.01 575.011 1170.2 573.981C1170.39 572.951 1170.28 571.886 1169.89 570.92C1169.5 569.955 1168.85 569.132 1168.01 568.557C1167.18 567.981 1166.2 567.679 1165.2 567.688C1163.86 567.7 1162.58 568.267 1161.65 569.266C1160.71 570.265 1160.18 571.614 1160.19 573.017Z" fill="#E0E0E0"/>
<path d="M1272.81 649.698C1272.81 650.747 1273.12 651.77 1273.68 652.638C1274.24 653.507 1275.03 654.181 1275.95 654.576C1276.88 654.971 1277.9 655.069 1278.88 654.857C1279.86 654.646 1280.75 654.134 1281.45 653.387C1282.16 652.641 1282.63 651.692 1282.82 650.662C1283.01 649.632 1282.9 648.567 1282.51 647.601C1282.12 646.636 1281.46 645.813 1280.63 645.238C1279.79 644.662 1278.81 644.36 1277.81 644.369C1276.48 644.381 1275.2 644.949 1274.26 645.948C1273.32 646.947 1272.8 648.295 1272.81 649.698Z" fill="#0052D4"/>
<path d="M830.514 248.776H798.093V384.077H830.514V248.776Z" fill="#E6E6E6"/>
<path d="M878.201 278.283H845.78V384.062H878.201V278.283Z" fill="#E6E6E6"/>
<path d="M926.623 302.445H894.202V384.062H926.623V302.445Z" fill="#E6E6E6"/>
<path d="M971.452 335.6H939.031V384.077H971.452V335.6Z" fill="#E6E6E6"/>
<path d="M945.495 215.015C945.495 215.015 945.192 215.424 944.601 216.15L941.903 219.405L931.644 231.668L894.649 275.573L894.447 275.8L894.216 275.618L870.077 256.209H870.568L836.805 301.113L836.401 301.658L836.156 301.991L835.853 301.703L790.388 259.57H790.893C773.045 284.157 757.924 305.155 747.103 320.007L734.506 337.281L731.145 341.823L730.264 342.988C730.166 343.126 730.06 343.258 729.947 343.382C730.029 343.234 730.121 343.093 730.221 342.958L731.058 341.747L734.333 337.099L746.756 319.704L790.331 259.055L790.561 258.738L790.836 258.995L836.358 301.022H835.809L836.213 300.477L870.019 255.604L870.236 255.316L870.51 255.543L894.606 274.937H894.173L931.355 231.381C935.843 226.158 939.363 222.055 941.773 219.269L944.529 216.09C945.163 215.333 945.495 215.015 945.495 215.015Z" fill="#E6E6E6"/>
<path d="M940.142 246.399C940.131 246.169 940.155 245.939 940.214 245.718L940.575 243.78C940.95 241.978 941.455 239.586 942.018 236.664C943.302 230.609 945.12 222.342 947.212 213.077L947.674 213.531L946.044 214.061C936.997 216.983 928.801 219.572 922.857 221.419L915.801 223.554L913.868 224.099C913.646 224.185 913.412 224.231 913.175 224.235C913.382 224.117 913.6 224.021 913.825 223.947L915.715 223.266L922.698 220.889C928.599 218.906 936.78 216.226 945.784 213.319L947.414 212.805L948.049 212.593L947.89 213.274C945.885 222.585 944.052 230.82 942.61 236.801C941.903 239.692 941.325 242.069 940.907 243.856C940.705 244.597 940.532 245.233 940.402 245.748C940.346 245.977 940.259 246.197 940.142 246.399Z" fill="#E6E6E6"/>
<path d="M1195.9 443.787C1202.35 443.677 1208.67 445.574 1214.09 449.238C1219.5 452.902 1223.76 458.168 1226.32 464.371C1228.89 470.575 1229.64 477.436 1228.49 484.087C1227.33 490.739 1224.33 496.882 1219.84 501.74C1215.36 506.598 1209.61 509.953 1203.31 511.381C1197.01 512.809 1190.45 512.245 1184.46 509.761C1178.47 507.277 1173.31 502.984 1169.65 497.425C1165.98 491.866 1163.96 485.292 1163.86 478.532C1163.73 469.468 1167.03 460.721 1173.03 454.207C1179.04 447.693 1187.27 443.946 1195.9 443.787ZM1196.68 494.322C1199.76 494.262 1202.76 493.245 1205.29 491.4C1207.82 489.555 1209.77 486.965 1210.89 483.957C1212.02 480.949 1212.27 477.657 1211.62 474.499C1210.96 471.34 1209.43 468.456 1207.21 466.211C1205 463.966 1202.2 462.461 1199.17 461.885C1196.14 461.31 1193.01 461.69 1190.18 462.977C1187.36 464.265 1184.96 466.402 1183.29 469.12C1181.62 471.837 1180.76 475.012 1180.81 478.244C1180.85 480.393 1181.29 482.514 1182.1 484.485C1182.92 486.457 1184.1 488.24 1185.57 489.733C1187.05 491.226 1188.79 492.4 1190.69 493.187C1192.6 493.975 1194.63 494.36 1196.68 494.322Z" fill="#E0E0E0"/>
<path d="M1195.85 439.533C1205.56 439.387 1214.94 443.289 1221.91 450.384C1228.89 457.479 1232.9 467.187 1233.07 477.381L1210.85 477.987C1210.71 467.858 1204.17 463.741 1196.42 463.226C1194.52 463.106 1192.61 463.402 1190.82 464.093C1189.03 464.785 1187.4 465.857 1186.02 467.244C1184.65 468.63 1183.56 470.301 1182.83 472.149C1182.1 473.998 1181.74 475.986 1181.78 477.987L1159.79 478.607C1159.64 468.411 1163.35 458.568 1170.11 451.242C1176.87 443.915 1186.13 439.704 1195.85 439.533Z" fill="#F0F0F0"/>
<path d="M932.091 594.424C943.308 582.074 958.696 574.838 974.946 574.272C991.195 573.705 1007.01 579.855 1018.98 591.396C1024.86 597.084 1029.61 603.94 1032.95 611.567C1036.28 619.193 1038.14 627.439 1038.42 635.827C1038.7 644.214 1037.39 652.576 1034.56 660.427C1031.74 668.279 1027.46 675.464 1021.97 681.567C1010.75 693.916 995.362 701.153 979.112 701.719C962.863 702.285 947.051 696.136 935.078 684.594C929.196 678.907 924.449 672.051 921.112 664.424C917.775 656.797 915.913 648.551 915.635 640.164C915.357 631.777 916.669 623.415 919.494 615.563C922.318 607.712 926.6 600.526 932.091 594.424ZM998.463 658.827C1001.09 655.911 1003.15 652.474 1004.5 648.717C1005.86 644.96 1006.48 640.958 1006.35 636.944C1006.22 632.93 1005.32 628.984 1003.72 625.336C1002.12 621.688 999.84 618.41 997.02 615.695C991.289 610.183 983.724 607.253 975.955 607.536C968.185 607.819 960.832 611.293 955.48 617.209C952.847 620.125 950.794 623.562 949.44 627.319C948.086 631.076 947.458 635.078 947.592 639.092C947.726 643.106 948.621 647.052 950.222 650.7C951.824 654.348 954.102 657.626 956.923 660.341C962.653 665.866 970.225 668.804 978.003 668.521C985.78 668.238 993.14 664.756 998.491 658.827H998.463Z" fill="#F5F5F5"/>
<path d="M932.091 594.424C943.308 582.074 958.696 574.838 974.946 574.272C991.195 573.705 1007.01 579.855 1018.98 591.396L997.077 615.74C991.347 610.228 983.782 607.298 976.012 607.582C968.243 607.865 960.89 611.338 955.538 617.254C952.905 620.171 950.852 623.607 949.498 627.364C948.144 631.121 947.516 635.123 947.65 639.138C947.784 643.152 948.678 647.098 950.28 650.746C951.882 654.394 954.16 657.671 956.98 660.387L935.049 684.64C929.163 678.95 924.413 672.089 921.074 664.457C917.735 656.825 915.874 648.573 915.599 640.181C915.324 631.788 916.64 623.421 919.471 615.567C922.302 607.712 926.592 600.525 932.091 594.424Z" fill="#E0E0E0"/>
<path d="M1016.47 580.935C1046.77 610.351 1050.45 658.146 1022.1 689.696L991.321 661.855C1004.87 646.791 1007.81 626.671 993.312 612.606L1016.47 580.935Z" fill="#EBEBEB"/>
<path d="M988.117 663.853L1006.4 701.793C1013.96 698.886 1020.77 694.174 1026.3 688.031L993.456 660.205L988.117 663.853Z" fill="#E0E0E0"/>
<path d="M1057.09 313.648C1056.82 296.642 1061.37 279.936 1070.15 265.642C1078.93 251.348 1091.56 240.109 1106.44 233.346C1121.31 226.584 1137.76 224.602 1153.71 227.652C1169.65 230.702 1184.38 238.646 1196.02 250.479C1207.67 262.312 1215.7 277.503 1219.12 294.13C1222.53 310.757 1221.17 328.072 1215.2 343.886C1209.23 359.7 1198.93 373.301 1185.59 382.97C1172.26 392.638 1156.49 397.939 1140.28 398.202C1118.57 398.526 1097.63 389.809 1082.03 373.96C1066.44 358.112 1057.47 336.424 1057.09 313.648ZM1178.18 311.604C1178.06 303.476 1175.64 295.57 1171.23 288.886C1166.82 282.201 1160.62 277.039 1153.42 274.05C1146.21 271.062 1138.32 270.383 1130.75 272.098C1123.18 273.813 1116.26 277.846 1110.87 283.686C1105.48 289.527 1101.87 296.912 1100.48 304.91C1099.09 312.907 1099.99 321.157 1103.07 328.616C1106.15 336.075 1111.27 342.409 1117.78 346.816C1124.29 351.222 1131.9 353.505 1139.65 353.374C1150.03 353.187 1159.92 348.684 1167.15 340.853C1174.37 333.022 1178.34 322.503 1178.18 311.604Z" fill="#FAFAFA"/>
<path d="M1057.09 313.648C1056.76 290.856 1065.06 268.858 1080.18 252.484C1095.29 236.109 1115.98 226.695 1137.7 226.309L1138.39 271.167C1128 271.342 1118.1 275.84 1110.87 283.672C1103.65 291.504 1099.68 302.028 1099.84 312.929C1100.01 323.83 1104.3 334.216 1111.76 341.801C1119.23 349.386 1129.26 353.549 1139.65 353.374L1140.28 398.202C1118.57 398.534 1097.62 389.82 1082.03 373.969C1066.43 358.119 1057.46 336.427 1057.09 313.648Z" fill="#E0E0E0"/>
<path d="M1130.34 219.405C1183.19 218.512 1225.37 261.357 1226.2 316.812L1176.18 317.66C1175.78 291.136 1156.46 274.437 1131.19 274.876L1130.34 219.405Z" fill="#F0F0F0"/>
<path d="M892.788 615.105L1160.15 613.091V617.027L892.788 619.54V615.105Z" fill="#263238"/>
<path d="M886.959 329.893L893.048 617.451L1160.15 615.271V325.063L886.959 329.893Z" fill="white"/>
<path d="M886.959 329.893L1160.15 324.73H1160.48V325.079C1160.48 408.149 1160.48 506.176 1160.48 610.759V615.68H1160.11L893.004 617.814H892.687V617.481C889.239 445.134 886.988 332.86 886.916 329.908C886.916 332.815 889.484 445.134 893.322 617.451L893.004 617.118L1160.11 614.893L1159.73 615.286V610.744C1159.73 506.161 1159.73 408.133 1159.73 325.063L1160.06 325.412L886.959 329.893Z" fill="#263238"/>
<path d="M885.891 331.816L1161.32 330.165L1161.66 318.039L885.891 319.84V331.816Z" fill="#263238"/>
<path d="M1017.74 625.293C1017.28 625.293 1016.79 623.038 1016.66 620.222C1016.53 617.406 1016.82 615.105 1017.28 615.074C1017.74 615.044 1018.23 617.315 1018.36 620.131C1018.49 622.947 1018.22 625.293 1017.74 625.293Z" fill="#263238"/>
<path d="M1017.64 623.219C1017.64 623.113 1018.1 623.083 1018.82 623.386C1019.26 623.578 1019.66 623.833 1020.03 624.143C1020.53 624.561 1020.95 625.075 1021.26 625.657C1021.69 626.461 1021.9 627.371 1021.88 628.292C1021.86 629.213 1021.61 630.112 1021.14 630.895C1020.87 631.367 1020.52 631.786 1020.11 632.136C1019.68 632.497 1019.19 632.77 1018.66 632.939C1017.55 633.262 1016.36 633.171 1015.3 632.681C1014.77 632.431 1014.28 632.082 1013.86 631.652C1013.44 631.221 1013.11 630.706 1012.89 630.138C1012.49 629.105 1012.41 627.968 1012.65 626.883C1012.82 625.978 1013.24 625.144 1013.85 624.475C1014.45 623.805 1015.23 623.329 1016.08 623.098C1017.17 622.785 1018.33 622.893 1019.36 623.401C1020.05 623.764 1020.31 624.143 1020.25 624.234C1020.19 624.324 1019.8 624.234 1019.14 624.052C1018.24 623.875 1017.3 623.959 1016.44 624.294C1015.89 624.521 1015.39 624.884 1015 625.354C1014.55 625.907 1014.25 626.582 1014.15 627.302C1014.04 628.021 1014.13 628.757 1014.41 629.426C1014.72 630.146 1015.28 630.713 1015.98 631.016C1016.67 631.341 1017.45 631.411 1018.19 631.213C1018.86 631.029 1019.45 630.586 1019.83 629.971C1020.21 629.391 1020.43 628.718 1020.48 628.018C1020.52 627.702 1020.52 627.381 1020.48 627.065C1020.43 626.767 1020.35 626.477 1020.24 626.202C1019.87 625.311 1019.28 624.534 1018.55 623.946C1018.01 623.552 1017.64 623.34 1017.64 623.219Z" fill="#263238"/>
<path d="M1057.37 487.252C1057.37 487.252 1057.37 487.252 1057.2 487.252H1056.71L1054.81 487.343L1047.46 487.676L1020.45 488.736C997.64 489.614 966.114 490.78 931.312 492.036L919.336 492.46H919.062V492.172C916.638 458.76 914.445 428.814 912.93 407.286C912.18 396.537 911.588 387.892 911.17 381.942C910.982 378.914 910.824 376.659 910.723 375.099C910.723 374.312 910.636 373.722 910.622 373.313C910.607 372.904 910.622 372.965 910.622 372.859C910.622 372.753 910.622 372.707 910.622 372.707C910.628 372.757 910.628 372.808 910.622 372.859C910.622 372.965 910.622 373.116 910.622 373.313C910.622 373.51 910.708 374.312 910.78 375.084C910.896 376.598 911.083 378.945 911.329 381.927C911.776 387.877 912.44 396.521 913.262 407.24C914.878 428.708 917.1 458.578 919.553 492.127L919.264 491.854L931.24 491.415C966.042 490.174 997.611 489.069 1020.38 488.312L1047.4 487.434L1054.75 487.222H1056.65H1057.32L1057.37 487.252Z" fill="#455A64"/>
<path d="M960.66 363.396V367.257L998.722 365.349V362.11L960.66 363.396Z" fill="#263238"/>
<path d="M931.846 483.952H945.077L942.999 446.27H930.028L931.846 483.952Z" fill="#0052D4"/>
<path d="M955.826 483.967H969.043L966.98 431.297H954.008L955.826 483.967Z" fill="#0052D4"/>
<path d="M978.277 482.286H991.508L989.43 413.326H976.473L978.277 482.286Z" fill="#0052D4"/>
<path d="M1029.79 479.607H1043L1040.94 385.621H1027.97L1029.79 479.607Z" fill="#0052D4"/>
<path d="M1004.72 479.925H1017.94L1015.86 399.05H1002.91L1004.72 479.925Z" fill="#0052D4"/>
<path d="M923.535 436.505C923.189 435.945 946.823 419.412 976.3 399.58C1005.78 379.747 1029.99 364.123 1030.34 364.759C1030.68 365.395 1007.05 381.851 977.556 401.684C948.064 421.517 923.853 437.065 923.535 436.505Z" fill="#0052D4"/>
<path d="M1017.25 364.698C1017.13 364.032 1025.69 361.792 1036.4 359.672L1039.11 359.142L1037.56 361.549L1037.48 361.686C1031.36 371.224 1025.93 378.657 1025.43 378.339C1024.92 378.021 1029.44 369.937 1035.53 360.384L1035.62 360.247L1036.8 362.125C1026.11 364.169 1017.36 365.349 1017.25 364.698Z" fill="#0052D4"/>
<path d="M930.028 496.684H943.851L944.284 499.258H930.028V496.684Z" fill="#263238"/>
<path d="M954.499 495.624H968.322L968.755 498.198H954.499V495.624Z" fill="#263238"/>
<path d="M979.691 494.867H993.514L993.947 497.441H979.691V494.867Z" fill="#263238"/>
<path d="M1003.3 494.246H1017.12L1017.55 496.835H1003.3V494.246Z" fill="#263238"/>
<path d="M1032.54 493.338H1046.37L1046.8 495.927H1032.54V493.338Z" fill="#263238"/>
<path d="M1094.54 595.953C1118.91 595.953 1138.66 575.225 1138.66 549.657C1138.66 524.088 1118.91 503.36 1094.54 503.36C1070.17 503.36 1050.42 524.088 1050.42 549.657C1050.42 575.225 1070.17 595.953 1094.54 595.953Z" fill="#0052D4"/>
<path opacity="0.3" d="M1094.54 595.953C1118.91 595.953 1138.66 575.225 1138.66 549.657C1138.66 524.088 1118.91 503.36 1094.54 503.36C1070.17 503.36 1050.42 524.088 1050.42 549.657C1050.42 575.225 1070.17 595.953 1094.54 595.953Z" fill="black"/>
<path d="M1094.54 549.596L1051.5 559.755C1044.58 526.448 1070.17 503.3 1094.54 503.3" fill="#4364F7"/>
<path d="M1094.6 549.596L1094.31 503.3C1126.81 503.3 1142.91 534.472 1137.71 559.452L1094.6 549.596Z" fill="#FF725E"/>
<path d="M1094.6 549.596L1094.31 503.3C1126.81 503.3 1142.91 534.472 1137.71 559.452L1094.6 549.596Z" fill="#6FB1FC"/>
<path opacity="0.1" d="M1094.6 549.596L1094.31 503.3C1126.81 503.3 1142.91 534.472 1137.71 559.452L1094.6 549.596Z" fill="#6FB1FC"/>
<path d="M1139.8 440.032C1138.95 439.431 1138.03 438.924 1137.08 438.518C1134.41 437.663 1131.55 437.748 1128.94 438.76C1125.56 439.866 1122.22 442.682 1118.97 446.209C1115.72 449.737 1112.25 454.006 1107.17 456.504C1104.72 457.782 1101.96 458.261 1099.25 457.882C1096.8 457.349 1094.43 456.462 1092.22 455.247C1090.27 454.182 1088.19 453.412 1086.03 452.961C1084.15 452.652 1082.23 452.904 1080.49 453.688C1077.92 454.832 1075.82 456.891 1074.56 459.502C1074.15 460.482 1073.82 461.495 1073.56 462.529C1073.61 461.434 1073.86 460.359 1074.3 459.365C1075.51 456.608 1077.63 454.407 1080.27 453.173C1082.08 452.328 1084.08 452.029 1086.04 452.31C1088.27 452.744 1090.43 453.509 1092.45 454.581C1094.61 455.756 1096.91 456.611 1099.29 457.125C1101.86 457.46 1104.46 456.997 1106.78 455.792C1111.65 453.4 1115.07 449.161 1118.41 445.694C1121.74 442.227 1125.19 439.306 1128.69 438.231C1131.42 437.234 1134.38 437.234 1137.11 438.231C1137.83 438.524 1138.52 438.922 1139.14 439.412C1139.39 439.589 1139.61 439.797 1139.8 440.032Z" fill="#263238"/>
<path d="M1143.54 469.951C1143.54 470.179 1127.87 470.347 1108.55 470.347C1089.23 470.347 1073.56 470.179 1073.56 469.951C1073.56 469.722 1089.23 469.554 1108.55 469.554C1127.87 469.554 1143.54 469.737 1143.54 469.951Z" fill="#263238"/>
<path d="M1139.65 469.948C1139.44 469.948 1139.27 460.592 1139.27 449.04C1139.27 437.489 1139.44 428.148 1139.65 428.148C1139.85 428.148 1140.02 437.504 1140.02 449.04C1140.02 460.576 1139.86 469.948 1139.65 469.948Z" fill="#263238"/>
<path d="M1080.62 452.341C1080.62 452.341 1080.52 452.189 1080.62 451.917C1080.69 451.725 1080.79 451.552 1080.93 451.408C1081.06 451.264 1081.23 451.153 1081.41 451.084C1081.69 450.957 1081.99 450.911 1082.29 450.951C1082.58 450.991 1082.87 451.115 1083.1 451.311C1083.35 451.61 1083.51 451.991 1083.53 452.392C1083.55 452.792 1083.44 453.188 1083.22 453.515C1083 453.842 1082.68 454.081 1082.31 454.192C1081.94 454.303 1081.55 454.28 1081.2 454.127C1080.95 453.971 1080.74 453.749 1080.6 453.483C1080.46 453.217 1080.39 452.917 1080.4 452.613C1080.4 452.411 1080.43 452.211 1080.51 452.024C1080.58 451.836 1080.69 451.666 1080.82 451.523C1081.04 451.341 1081.2 451.341 1081.21 451.372C1081.22 451.402 1080.82 451.811 1080.92 452.583C1080.94 452.781 1081.01 452.972 1081.11 453.14C1081.21 453.309 1081.35 453.449 1081.51 453.552C1081.72 453.605 1081.93 453.594 1082.12 453.518C1082.32 453.443 1082.49 453.307 1082.61 453.129C1082.73 452.951 1082.8 452.739 1082.81 452.52C1082.81 452.301 1082.75 452.085 1082.64 451.901C1082.49 451.777 1082.32 451.691 1082.14 451.651C1081.96 451.612 1081.77 451.62 1081.59 451.674C1080.85 451.796 1080.72 452.371 1080.62 452.341Z" fill="#263238"/>
<path d="M1127.8 437.156C1127.8 437.156 1127.8 436.974 1128.06 436.823C1128.4 436.646 1128.78 436.613 1129.14 436.732C1129.43 436.813 1129.68 436.974 1129.89 437.199C1130.09 437.423 1130.23 437.701 1130.3 438.003C1130.32 438.394 1130.21 438.781 1130 439.102C1129.79 439.423 1129.48 439.659 1129.12 439.773C1128.77 439.886 1128.38 439.871 1128.04 439.728C1127.69 439.586 1127.4 439.325 1127.21 438.988C1127.1 438.696 1127.08 438.38 1127.13 438.073C1127.18 437.767 1127.32 437.481 1127.51 437.247C1127.76 436.944 1128.1 436.754 1128.48 436.717C1128.74 436.717 1128.87 436.807 1128.85 436.853C1128.84 436.898 1128.31 436.929 1127.94 437.58C1127.84 437.742 1127.78 437.926 1127.76 438.118C1127.74 438.31 1127.77 438.504 1127.83 438.685C1127.96 438.848 1128.13 438.968 1128.32 439.03C1128.51 439.091 1128.72 439.091 1128.91 439.029C1129.1 438.967 1129.27 438.847 1129.4 438.683C1129.52 438.519 1129.6 438.319 1129.62 438.109C1129.58 437.921 1129.5 437.745 1129.38 437.595C1129.27 437.445 1129.12 437.326 1128.95 437.247C1128.32 436.913 1127.87 437.262 1127.8 437.156Z" fill="#263238"/>
<path d="M1138.41 387.607C1138.41 387.821 1123.23 388.004 1104.51 388.004C1085.8 388.004 1070.62 387.821 1070.62 387.607C1070.62 387.394 1085.78 387.211 1104.51 387.211C1123.24 387.211 1138.41 387.424 1138.41 387.607Z" fill="#263238"/>
<path d="M1138.41 397.524C1138.41 397.753 1123.23 397.92 1104.51 397.92C1085.8 397.92 1070.62 397.753 1070.62 397.524C1070.62 397.295 1085.78 397.127 1104.51 397.127C1123.24 397.127 1138.41 397.31 1138.41 397.524Z" fill="#263238"/>
<path d="M1138.41 407.41C1138.41 407.623 1123.23 407.806 1104.51 407.806C1085.8 407.806 1070.62 407.623 1070.62 407.41C1070.62 407.196 1085.78 407.013 1104.51 407.013C1123.24 407.013 1138.41 407.181 1138.41 407.41Z" fill="#263238"/>
<path d="M1138.41 417.281C1138.41 417.51 1123.23 417.677 1104.51 417.677C1085.8 417.677 1070.62 417.51 1070.62 417.281C1070.62 417.052 1085.78 416.884 1104.51 416.884C1123.24 416.884 1138.41 417.067 1138.41 417.281Z" fill="#263238"/>
<path d="M1106.69 369.573H1070.62V372.768H1106.69V369.573Z" fill="#263238"/>
<path d="M957.789 528.174H921.717V531.368H957.789V528.174Z" fill="#263238"/>
<path d="M1020.42 546.692C1020.42 546.921 998.535 547.089 971.539 547.089C944.543 547.089 922.641 546.921 922.641 546.692C922.641 546.464 944.529 546.296 971.539 546.296C998.55 546.296 1020.42 546.479 1020.42 546.692Z" fill="#263238"/>
<path d="M1021 555.655C1021 555.869 998.722 556.052 971.25 556.052C943.778 556.052 921.501 555.869 921.501 555.655C921.501 555.441 943.764 555.258 971.25 555.258C998.737 555.258 1021 555.472 1021 555.655Z" fill="#263238"/>
<path d="M1022.14 564.103C1022.14 564.316 999.732 564.499 972.102 564.499C944.471 564.499 922.063 564.316 922.063 564.103C922.063 563.889 944.471 563.706 972.102 563.706C999.732 563.706 1022.14 563.874 1022.14 564.103Z" fill="#263238"/>
<path d="M974.108 573.096C974.108 573.309 962.565 573.492 948.367 573.492C934.169 573.492 922.641 573.309 922.641 573.096C922.641 572.882 934.184 572.699 948.367 572.699C962.55 572.699 974.108 572.882 974.108 573.096Z" fill="#263238"/>
<path d="M816.98 818.169V804.544L792.553 804.317L792.351 824.346L793.793 824.452C800.532 824.891 828.076 826.178 832.592 824.785C837.7 823.211 816.98 818.169 816.98 818.169Z" fill="#FF725E"/>
<path d="M833.241 823.532C833.241 823.776 824.108 823.975 812.839 823.975C801.571 823.975 792.423 823.776 792.423 823.532C792.423 823.288 801.571 823.09 812.839 823.09C824.108 823.09 833.241 823.288 833.241 823.532Z" fill="#263238"/>
<path d="M817.413 820.97C817.211 820.849 817.413 820.107 817.904 819.456C818.394 818.805 819.072 818.382 819.217 818.548C819.361 818.715 819.044 819.335 818.567 820.062C818.091 820.789 817.615 821.091 817.413 820.97Z" fill="#263238"/>
<path d="M818.972 821.863C818.755 821.773 818.871 820.955 819.347 820.107C819.823 819.259 820.458 818.745 820.631 818.896C820.804 819.048 820.515 819.759 820.068 820.546C819.621 821.334 819.188 821.954 818.972 821.863Z" fill="#263238"/>
<path d="M799.767 823.438C799.666 823.514 799.291 823.15 798.757 822.545C798.107 821.754 797.387 821.029 796.607 820.38C795.829 819.78 794.922 819.39 793.967 819.244C793.231 819.138 792.755 819.244 792.711 819.123C792.668 819.002 793.13 818.684 793.981 818.624C795.103 818.59 796.202 818.958 797.098 819.668C797.951 820.355 798.675 821.202 799.233 822.166C799.68 822.878 799.882 823.362 799.767 823.438Z" fill="#263238"/>
<path d="M817.485 818.397C817.601 818.593 817.168 819.078 816.475 819.335C815.783 819.593 815.162 819.502 815.133 819.259C815.104 819.017 815.581 818.745 816.201 818.518C816.821 818.291 817.355 818.185 817.485 818.397Z" fill="#263238"/>
<path d="M817.081 817.067C817.081 817.312 816.446 817.525 815.638 817.54C814.83 817.556 814.196 817.357 814.196 817.113C814.196 816.869 814.859 816.671 815.638 816.656C816.418 816.64 817.081 816.823 817.081 817.067Z" fill="#FF725E"/>
<path d="M833.241 823.532C833.241 823.776 824.108 823.975 812.839 823.975C801.571 823.975 792.423 823.776 792.423 823.532C792.423 823.288 801.571 823.09 812.839 823.09C824.108 823.09 833.241 823.288 833.241 823.532Z" fill="#263238"/>
<path d="M817.413 820.97C817.211 820.849 817.413 820.107 817.904 819.456C818.394 818.805 819.072 818.382 819.217 818.548C819.361 818.715 819.044 819.335 818.567 820.062C818.091 820.789 817.615 821.091 817.413 820.97Z" fill="#263238"/>
<path d="M818.972 821.863C818.755 821.773 818.871 820.955 819.347 820.107C819.823 819.259 820.458 818.745 820.631 818.896C820.804 819.048 820.515 819.759 820.068 820.546C819.621 821.334 819.188 821.954 818.972 821.863Z" fill="#263238"/>
<path d="M799.767 823.438C799.666 823.514 799.291 823.15 798.757 822.545C798.107 821.754 797.387 821.029 796.607 820.38C795.829 819.78 794.922 819.39 793.967 819.244C793.231 819.138 792.755 819.244 792.711 819.123C792.668 819.002 793.13 818.684 793.981 818.624C795.103 818.59 796.202 818.958 797.098 819.668C797.951 820.355 798.675 821.202 799.233 822.166C799.68 822.878 799.882 823.362 799.767 823.438Z" fill="#263238"/>
<path d="M817.485 818.397C817.601 818.593 817.168 819.078 816.475 819.335C815.783 819.593 815.162 819.502 815.133 819.259C815.104 819.017 815.581 818.745 816.201 818.518C816.821 818.291 817.355 818.185 817.485 818.397Z" fill="#263238"/>
<path d="M817.081 817.067C817.081 817.312 816.446 817.525 815.638 817.54C814.83 817.556 814.196 817.357 814.196 817.113C814.196 816.869 814.859 816.671 815.638 816.656C816.418 816.64 817.081 816.823 817.081 817.067Z" fill="#263238"/>
<path d="M842.75 813.325L846.602 800.26L823.314 792.508L817.543 811.569L818.986 812.144C825.291 814.657 851.248 824.437 855.952 824.513C861.117 824.574 842.75 813.325 842.75 813.325Z" fill="#FF725E"/>
<path d="M856.774 823.483C856.774 823.726 847.915 821.076 837.151 817.564C826.388 814.052 817.716 811.039 817.788 810.812C817.86 810.585 826.633 813.234 837.411 816.731C848.189 820.228 856.846 823.256 856.774 823.483Z" fill="#263238"/>
<path d="M842.375 816.126C842.216 815.944 842.591 815.308 843.284 814.778C843.976 814.248 844.726 814.112 844.798 814.324C844.871 814.536 844.409 815.021 843.774 815.505C843.139 815.99 842.533 816.292 842.375 816.126Z" fill="#263238"/>
<path d="M843.601 817.473C843.428 817.322 843.76 816.565 844.467 815.959C845.174 815.354 845.909 815.005 846.039 815.202C846.169 815.399 845.679 815.989 845.029 816.61C844.38 817.231 843.788 817.564 843.601 817.473Z" fill="#263238"/>
<path d="M824.844 813.022C824.729 813.022 824.483 812.613 824.151 811.856C823.755 810.901 823.272 809.989 822.709 809.131C822.136 808.318 821.383 807.664 820.515 807.224C819.837 806.906 819.347 806.845 819.347 806.724C819.347 806.603 819.866 806.421 820.703 806.633C821.779 806.954 822.72 807.648 823.372 808.601C823.99 809.517 824.445 810.543 824.714 811.629C824.902 812.447 824.945 813.022 824.844 813.022Z" fill="#455A64"/>
<path d="M843.168 813.691C843.168 813.919 842.677 814.255 841.941 814.285C841.206 814.316 840.628 814.026 840.672 813.782C840.715 813.538 841.263 813.431 841.913 813.401C842.562 813.37 843.052 813.446 843.168 813.691Z" fill="#263238"/>
<path d="M843.168 812.311C843.168 812.538 842.446 812.538 841.653 812.311C840.859 812.084 840.297 811.675 840.369 811.448C840.441 811.221 841.133 811.236 841.884 811.448C842.634 811.66 843.226 812.068 843.168 812.311Z" fill="#263238"/>
<path d="M859.328 547.522L827.268 544.933L778.701 540.8L784.126 814.536L826.301 813.961C826.301 813.961 826.301 810.933 826.2 805.574L850.93 812.674C850.93 812.674 875.026 727.257 883.236 692.21C890.09 663.006 859.328 547.522 859.328 547.522ZM825.738 763.062C825.103 699.87 824.368 592.41 825.248 579.269C825.248 579.269 848.737 673.876 848.954 681.339C849.098 685.851 836.011 729.513 825.738 763.062Z" fill="#455A64"/>
<path d="M826.532 803.594C826.532 803.838 817.096 804.036 805.466 804.036C793.837 804.036 784.386 803.838 784.386 803.594C784.386 803.35 793.822 803.151 805.466 803.151C817.11 803.151 826.532 803.35 826.532 803.594Z" fill="#455A64"/>
<path d="M826.157 793.75C827.476 794.078 828.769 794.513 830.024 795.052L839.676 798.579L849.329 802.122C850.694 802.531 852.018 803.079 853.282 803.757C851.873 803.551 850.486 803.201 849.141 802.712C846.631 801.94 843.182 800.789 839.402 799.412C835.622 798.034 832.188 796.672 829.822 795.627C828.523 795.182 827.29 794.55 826.157 793.75Z" fill="#455A64"/>
<path d="M864.796 680.492C862.188 681.129 859.524 681.485 856.846 681.551C854.191 681.907 851.507 681.973 848.838 681.748C851.445 681.099 854.11 680.739 856.789 680.673C859.444 680.318 862.128 680.257 864.796 680.492Z" fill="#455A64"/>
<path d="M862.041 685.457C859.967 685.274 857.924 684.805 855.966 684.065C853.929 683.598 851.959 682.849 850.108 681.839C852.188 682.005 854.237 682.468 856.197 683.217C859.487 684.216 862.113 685.215 862.041 685.457Z" fill="#455A64"/>
<path d="M829.129 545.281C829.323 547.009 829.395 548.75 829.346 550.489C829.346 553.714 829.346 558.165 829.346 563.085C829.346 565.523 829.346 567.854 829.259 570.004C829.312 571.941 828.967 573.866 828.249 575.651C827.737 576.867 826.919 577.914 825.883 578.679C825.529 578.986 825.107 579.195 824.656 579.285C824.656 579.285 825.06 579.012 825.71 578.437C826.621 577.617 827.329 576.578 827.773 575.409C828.374 573.675 828.644 571.833 828.566 569.989C828.566 567.824 828.566 565.447 828.566 563.055C828.566 558.135 828.682 553.684 828.768 550.474C828.764 548.736 828.884 547 829.129 545.281Z" fill="#455A64"/>
<path d="M804.99 543.737C805.006 543.959 805.006 544.182 804.99 544.403C804.99 544.888 804.99 545.539 804.99 546.371C804.99 548.128 804.86 550.671 804.759 553.941C804.557 560.527 804.269 569.989 803.908 581.661C803.23 605.067 802.537 637.42 802.364 673.134C802.191 708.848 802.581 741.261 803.028 764.652C803.273 776.324 803.461 785.847 803.605 792.372C803.605 795.627 803.72 798.155 803.764 799.942C803.764 800.774 803.764 801.456 803.764 801.91C803.779 802.131 803.779 802.354 803.764 802.576C803.748 802.354 803.748 802.131 803.764 801.91C803.764 801.44 803.764 800.789 803.663 799.957C803.663 798.185 803.504 795.657 803.374 792.387C803.129 785.847 802.84 776.37 802.552 764.667C801.96 741.246 801.498 708.893 801.672 673.134C801.845 637.375 802.624 605.006 803.432 581.646C803.836 569.944 804.211 560.451 804.528 553.926C804.687 550.686 804.817 548.158 804.904 546.356C804.904 545.524 804.99 544.842 805.019 544.388C804.995 544.172 804.985 543.955 804.99 543.737Z" fill="#455A64"/>
<path d="M848.824 550.626C848.912 550.826 848.984 551.034 849.041 551.246C849.17 551.701 849.358 552.306 849.589 553.093C850.051 554.713 850.786 557.105 851.594 560.224C853.254 566.446 855.49 575.485 857.986 586.733C860.482 597.982 863.253 611.395 866.138 626.353C869.024 641.311 872.069 657.782 874.796 675.163C875.142 677.343 875.459 679.508 875.733 681.672C875.733 682.248 875.834 682.838 875.834 683.398L875.575 685.003C875.387 686.078 875.243 687.153 875.012 688.198C874.19 692.406 873.266 696.524 872.271 700.551C870.308 708.605 868.231 716.311 866.182 723.639C862.113 738.294 858.188 751.405 854.855 762.411C851.522 773.417 848.738 782.274 846.775 788.39L844.496 795.43L843.875 797.262C843.821 797.473 843.744 797.676 843.644 797.867C843.682 797.652 843.735 797.439 843.803 797.232C843.947 796.777 844.12 796.172 844.351 795.385L846.501 788.299L854.35 762.244C857.611 751.223 861.478 738.097 865.518 723.442C867.538 716.115 869.601 708.393 871.564 700.354C872.545 696.343 873.468 692.24 874.291 688.046C874.521 687.002 874.651 685.942 874.824 684.882L875.084 683.292C875.084 682.778 875.012 682.278 874.983 681.778C874.709 679.644 874.406 677.479 874.06 675.314C871.318 657.949 868.288 641.477 865.403 626.52C862.517 611.562 859.905 598.042 857.481 586.854C855.057 575.666 852.879 566.537 851.306 560.3C850.556 557.181 849.863 554.774 849.445 553.139L848.968 551.277C848.898 551.066 848.849 550.848 848.824 550.626Z" fill="#455A64"/>
<path d="M825.608 757.506C825.725 758.21 825.768 758.926 825.738 759.64C825.738 761.154 825.738 763.138 825.81 765.484C825.81 770.556 825.984 777.293 826.085 784.727C826.186 792.16 826.46 798.897 826.59 803.969C826.59 806.315 826.705 808.284 826.748 809.813C826.813 810.523 826.813 811.237 826.748 811.947C826.589 811.253 826.502 810.542 826.489 809.828C826.373 808.45 826.243 806.467 826.099 803.999C825.81 799.079 825.536 792.266 825.378 784.742C825.219 777.217 825.248 770.405 825.378 765.484C825.378 763.017 825.479 760.942 825.536 759.64C825.507 758.928 825.531 758.214 825.608 757.506Z" fill="#455A64"/>
<path d="M859.328 547.522L827.268 544.933L778.701 540.8L784.126 814.536L826.301 813.961C826.301 813.961 826.301 810.933 826.2 805.574L850.93 812.674C850.93 812.674 875.026 727.257 883.236 692.21C890.09 663.006 859.328 547.522 859.328 547.522ZM825.738 763.062C825.103 699.87 824.368 592.41 825.248 579.269C825.248 579.269 848.737 673.876 848.954 681.339C849.098 685.851 836.011 729.513 825.738 763.062Z" fill="#263238"/>
<path d="M826.532 803.594C826.532 803.838 817.096 804.036 805.466 804.036C793.837 804.036 784.386 803.838 784.386 803.594C784.386 803.35 793.822 803.151 805.466 803.151C817.11 803.151 826.532 803.35 826.532 803.594Z" fill="#455A64"/>
<path d="M826.157 793.75C827.476 794.078 828.769 794.513 830.024 795.052L839.676 798.579L849.329 802.122C850.694 802.531 852.018 803.079 853.282 803.757C851.873 803.551 850.486 803.201 849.141 802.712C846.631 801.94 843.182 800.789 839.402 799.412C835.622 798.034 832.188 796.672 829.822 795.627C828.523 795.182 827.29 794.55 826.157 793.75Z" fill="#455A64"/>
<path d="M864.796 680.492C862.188 681.129 859.524 681.485 856.846 681.551C854.191 681.907 851.507 681.973 848.838 681.748C851.445 681.099 854.11 680.739 856.789 680.673C859.444 680.318 862.128 680.257 864.796 680.492Z" fill="#455A64"/>
<path d="M862.041 685.457C859.967 685.274 857.924 684.805 855.966 684.065C853.929 683.598 851.959 682.849 850.108 681.839C852.188 682.005 854.237 682.468 856.197 683.217C859.487 684.216 862.113 685.215 862.041 685.457Z" fill="#455A64"/>
<path d="M829.129 545.281C829.323 547.009 829.395 548.75 829.346 550.489C829.346 553.714 829.346 558.165 829.346 563.085C829.346 565.523 829.346 567.854 829.259 570.004C829.312 571.941 828.967 573.866 828.249 575.651C827.737 576.867 826.919 577.914 825.883 578.679C825.529 578.986 825.107 579.195 824.656 579.285C824.656 579.285 825.06 579.012 825.71 578.437C826.621 577.617 827.329 576.578 827.773 575.409C828.374 573.675 828.644 571.833 828.566 569.989C828.566 567.824 828.566 565.447 828.566 563.055C828.566 558.135 828.682 553.684 828.768 550.474C828.764 548.736 828.884 547 829.129 545.281Z" fill="#455A64"/>
<path d="M804.99 543.737C805.006 543.959 805.006 544.182 804.99 544.403C804.99 544.888 804.99 545.539 804.99 546.371C804.99 548.128 804.86 550.671 804.759 553.941C804.557 560.527 804.269 569.989 803.908 581.661C803.23 605.067 802.537 637.42 802.364 673.134C802.191 708.848 802.581 741.261 803.028 764.652C803.273 776.324 803.461 785.847 803.605 792.372C803.605 795.627 803.72 798.155 803.764 799.942C803.764 800.774 803.764 801.456 803.764 801.91C803.779 802.131 803.779 802.354 803.764 802.576C803.748 802.354 803.748 802.131 803.764 801.91C803.764 801.44 803.764 800.789 803.663 799.957C803.663 798.185 803.504 795.657 803.374 792.387C803.129 785.847 802.84 776.37 802.552 764.667C801.96 741.246 801.498 708.893 801.672 673.134C801.845 637.375 802.624 605.006 803.432 581.646C803.836 569.944 804.211 560.451 804.528 553.926C804.687 550.686 804.817 548.158 804.904 546.356C804.904 545.524 804.99 544.842 805.019 544.388C804.995 544.172 804.985 543.955 804.99 543.737Z" fill="#455A64"/>
<path d="M848.824 550.626C848.912 550.826 848.984 551.034 849.041 551.246C849.17 551.701 849.358 552.306 849.589 553.093C850.051 554.713 850.786 557.105 851.594 560.224C853.254 566.446 855.49 575.485 857.986 586.733C860.482 597.982 863.253 611.395 866.138 626.353C869.024 641.311 872.069 657.782 874.796 675.163C875.142 677.343 875.459 679.508 875.733 681.672C875.733 682.248 875.834 682.838 875.834 683.398L875.575 685.003C875.387 686.078 875.243 687.153 875.012 688.198C874.19 692.406 873.266 696.524 872.271 700.551C870.308 708.605 868.231 716.311 866.182 723.639C862.113 738.294 858.188 751.405 854.855 762.411C851.522 773.417 848.738 782.274 846.775 788.39L844.496 795.43L843.875 797.262C843.821 797.473 843.744 797.676 843.644 797.867C843.682 797.652 843.735 797.439 843.803 797.232C843.947 796.777 844.12 796.172 844.351 795.385L846.501 788.299L854.35 762.244C857.611 751.223 861.478 738.097 865.518 723.442C867.538 716.115 869.601 708.393 871.564 700.354C872.545 696.343 873.468 692.24 874.291 688.046C874.521 687.002 874.651 685.942 874.824 684.882L875.084 683.292C875.084 682.778 875.012 682.278 874.983 681.778C874.709 679.644 874.406 677.479 874.06 675.314C871.318 657.949 868.288 641.477 865.403 626.52C862.517 611.562 859.905 598.042 857.481 586.854C855.057 575.666 852.879 566.537 851.306 560.3C850.556 557.181 849.863 554.774 849.445 553.139L848.968 551.277C848.898 551.066 848.849 550.848 848.824 550.626Z" fill="#455A64"/>
<path d="M825.608 757.506C825.725 758.21 825.768 758.926 825.738 759.64C825.738 761.154 825.738 763.138 825.81 765.484C825.81 770.556 825.984 777.293 826.085 784.727C826.186 792.16 826.46 798.897 826.59 803.969C826.59 806.315 826.705 808.284 826.748 809.813C826.813 810.523 826.813 811.237 826.748 811.947C826.589 811.253 826.502 810.542 826.489 809.828C826.373 808.45 826.243 806.467 826.099 803.999C825.81 799.079 825.536 792.266 825.378 784.742C825.219 777.217 825.248 770.405 825.378 765.484C825.378 763.017 825.479 760.942 825.536 759.64C825.507 758.928 825.531 758.214 825.608 757.506Z" fill="#455A64"/>
<path d="M804.095 416.142L828.624 418.05C828.956 415.022 829.432 403.501 829.432 403.501C829.432 403.501 839.662 402.517 840.412 391.889C841.162 381.261 840.845 356.72 840.845 356.72C835.237 353.746 828.974 352.398 822.703 352.816C816.432 353.234 810.382 355.402 805.177 359.097L803.605 360.217L804.095 416.142Z" fill="#E5BAAB"/>
<path d="M837.353 374.842C837.159 374.627 837.029 374.357 836.979 374.066C836.929 373.774 836.962 373.474 837.074 373.202C837.185 372.93 837.37 372.698 837.605 372.535C837.841 372.372 838.117 372.285 838.399 372.285C838.682 372.285 838.958 372.372 839.193 372.535C839.429 372.698 839.614 372.93 839.725 373.202C839.837 373.474 839.869 373.774 839.82 374.066C839.77 374.357 839.64 374.627 839.445 374.842C839.311 374.991 839.148 375.109 838.969 375.19C838.789 375.271 838.595 375.313 838.399 375.313C838.204 375.313 838.01 375.271 837.83 375.19C837.65 375.109 837.488 374.991 837.353 374.842Z" fill="#263238"/>
<path d="M839.95 372.571C839.777 372.753 838.839 371.89 837.44 371.784C836.04 371.678 834.987 372.374 834.843 372.177C834.698 371.98 834.944 371.768 835.42 371.451C836.034 371.028 836.766 370.835 837.498 370.906C838.235 370.952 838.936 371.256 839.489 371.768C839.907 372.147 840.037 372.465 839.95 372.571Z" fill="#263238"/>
<path d="M823.79 372.813C824.019 372.988 824.193 373.23 824.292 373.508C824.39 373.787 824.409 374.089 824.345 374.378C824.281 374.668 824.137 374.931 823.932 375.135C823.726 375.339 823.468 375.475 823.19 375.527C822.911 375.578 822.624 375.543 822.364 375.424C822.105 375.306 821.884 375.11 821.73 374.861C821.576 374.613 821.495 374.322 821.497 374.025C821.499 373.728 821.584 373.438 821.742 373.192C821.85 373.022 821.99 372.878 822.153 372.767C822.315 372.656 822.498 372.58 822.689 372.545C822.881 372.509 823.077 372.515 823.266 372.561C823.455 372.607 823.634 372.693 823.79 372.813Z" fill="#263238"/>
<path d="M824.714 372.889C824.541 373.055 823.603 372.192 822.203 372.086C820.804 371.98 819.75 372.692 819.606 372.495C819.462 372.298 819.707 372.071 820.169 371.753C820.794 371.346 821.526 371.155 822.261 371.208C822.996 371.265 823.694 371.567 824.252 372.071C824.671 372.465 824.8 372.813 824.714 372.889Z" fill="#263238"/>
<path d="M829.605 385.333C830.343 385.094 831.112 384.977 831.885 384.985C832.26 384.985 832.563 384.91 832.606 384.698C832.643 384.307 832.573 383.913 832.404 383.562L831.481 380.534C830.592 377.945 829.94 375.274 829.533 372.556C830.651 375.041 831.545 377.631 832.202 380.292L833.068 383.32C833.276 383.821 833.317 384.381 833.183 384.91C833.123 385.051 833.031 385.176 832.916 385.273C832.8 385.371 832.665 385.438 832.52 385.47C832.314 385.498 832.105 385.498 831.899 385.47C831.132 385.553 830.358 385.507 829.605 385.333Z" fill="#263238"/>
<path d="M824.974 386.651C823.531 385.651 828.84 389.149 831.697 389.194C831.178 389.932 830.436 390.462 829.592 390.699C828.747 390.936 827.852 390.864 827.051 390.496C824.079 389.118 824.974 386.651 824.974 386.651Z" fill="white"/>
<path d="M829.374 403.349C824.689 403.142 820.169 401.476 816.389 398.565C816.389 398.565 819.058 406.423 829.23 406.135L829.374 403.349Z" fill="#D78776"/>
<path d="M805.538 369.649C805.307 369.558 798.007 368.559 798.699 377.612C799.392 386.666 807.876 382.926 807.861 382.669C807.847 382.412 805.538 369.649 805.538 369.649Z" fill="#E5BAAB"/>
<path d="M804.903 379.717C804.903 379.717 804.774 379.838 804.528 379.989C804.181 380.176 803.779 380.219 803.403 380.11C802.819 379.783 802.327 379.3 801.977 378.71C801.628 378.12 801.433 377.444 801.412 376.749C801.332 375.977 801.421 375.195 801.671 374.463C801.729 374.174 801.852 373.903 802.031 373.674C802.209 373.445 802.437 373.264 802.696 373.146C802.866 373.089 803.05 373.093 803.218 373.159C803.385 373.225 803.527 373.349 803.619 373.51C803.749 373.752 803.72 373.933 803.764 373.949C803.807 373.964 803.937 373.782 803.764 373.419C803.703 373.196 803.571 373.004 803.388 372.874C803.132 372.714 802.829 372.66 802.537 372.722C802.193 372.824 801.88 373.017 801.628 373.282C801.375 373.547 801.192 373.876 801.094 374.236C800.783 375.047 800.669 375.926 800.762 376.795C800.778 377.604 801.023 378.389 801.465 379.052C801.906 379.715 802.526 380.226 803.244 380.519C803.481 380.571 803.725 380.567 803.96 380.507C804.195 380.446 804.414 380.332 804.6 380.171C804.903 379.944 804.947 379.732 804.903 379.717Z" fill="#D78776"/>
<path d="M841.494 352.89C842.078 352.873 842.651 352.716 843.168 352.43C843.685 352.145 844.132 351.738 844.475 351.242C844.818 350.746 845.048 350.174 845.147 349.57C845.246 348.966 845.211 348.346 845.045 347.758C844.879 347.17 844.586 346.631 844.189 346.181C843.793 345.731 843.303 345.382 842.757 345.163C842.212 344.943 841.626 344.858 841.044 344.914C840.462 344.97 839.9 345.166 839.402 345.486C840.609 344.436 841.592 343.131 842.288 341.656C842.625 340.913 842.736 340.078 842.607 339.266C842.478 338.454 842.115 337.703 841.567 337.114C840.932 336.674 840.197 336.416 839.437 336.368C838.677 336.321 837.919 336.484 837.238 336.842C835.088 337.811 833.386 339.718 831.178 340.521C828.97 341.323 826.503 340.93 824.137 341.035C821.482 341.085 818.91 342.018 816.793 343.7C814.989 345.187 813.821 347.366 813.546 349.756C813.263 349.347 812.949 348.963 812.608 348.605C811.486 347.2 809.972 346.199 808.28 345.744C808.179 345.941 810.156 347.091 812.046 349.15C812.56 349.667 813.042 350.218 813.489 350.8C810.199 350.377 806.577 350.346 803.98 352.496C802.928 353.48 802.096 354.696 801.545 356.057C800.994 357.418 800.736 358.891 800.791 360.369C800.791 363.306 801.946 366.106 802.768 368.922C802.967 369.72 803.31 370.47 803.778 371.133L805.019 378.702L809.535 378.612L809.247 362.73C809.247 362.73 808.785 356.039 814.268 356.675C819.751 357.31 827.253 363.745 837.902 362.11C839.649 362.007 841.351 361.49 842.88 360.596C843.619 360.104 844.221 359.414 844.622 358.597C845.022 357.78 845.208 356.865 845.159 355.948C845.054 355.035 844.611 354.202 843.925 353.63C843.239 353.057 842.366 352.791 841.494 352.89Z" fill="#263238"/>
<path d="M933.26 431.266L933.924 426.452C934.602 423.819 935.027 421.12 935.193 418.398C935.302 417.045 935.185 415.682 934.847 414.371C934.507 412.721 933.943 411.13 933.173 409.647C932.337 408.36 933.433 406.619 934.616 407.149C935.799 407.679 938.267 411.101 939.06 416.036C939.854 420.972 943.562 414.129 944.947 411.661C946.332 409.193 950.993 401.76 952.06 401.608C953.619 401.381 954.138 403.122 952.681 405.529C951.224 407.937 947.386 415.582 948.67 416.278C949.631 416.117 950.614 416.169 951.555 416.43C951.707 416.477 951.842 416.572 951.94 416.702C952.038 416.832 952.095 416.991 952.104 417.157C952.098 417.92 952.176 418.682 952.335 419.427C952.335 419.427 954.225 418.973 954.614 419.836C954.878 420.722 955 421.648 954.975 422.576C954.975 422.576 956.418 422.062 957.11 422.576C958.553 423.803 956.706 425.907 956.706 425.907C952.458 431.225 947.894 436.256 943.043 440.971L933.101 430.918" fill="#E5BAAB"/>
<path d="M951.757 419.76C951.333 420.696 950.762 421.551 950.069 422.289C949.492 423.015 948.771 423.803 947.919 424.756C947.475 425.252 946.993 425.708 946.476 426.119C946.158 426.384 945.775 426.548 945.37 426.591C944.966 426.634 944.559 426.554 944.197 426.361C943.999 426.24 943.832 426.071 943.709 425.868C943.586 425.665 943.511 425.435 943.49 425.196C943.461 424.769 943.551 424.343 943.749 423.969C944.105 423.407 944.49 422.866 944.904 422.349C945.64 421.38 946.246 420.472 946.751 419.685C947.235 418.795 947.79 417.949 948.41 417.157C948.169 418.164 947.759 419.117 947.198 419.972C946.674 420.946 946.096 421.886 945.466 422.788C945.083 423.271 944.727 423.777 944.399 424.302C944.139 424.802 944.153 425.423 944.572 425.65C944.807 425.754 945.065 425.791 945.319 425.756C945.572 425.721 945.812 425.617 946.015 425.453C946.494 425.072 946.947 424.658 947.371 424.211C948.237 423.364 948.987 422.561 949.607 421.88C950.254 421.099 950.974 420.389 951.757 419.76Z" fill="#D78776"/>
<path d="M954.282 422.864C953.858 423.672 953.312 424.403 952.666 425.029C952.015 425.762 951.305 426.435 950.545 427.043C950.089 427.405 949.607 427.728 949.103 428.011C948.803 428.169 948.482 428.276 948.15 428.329C947.95 428.364 947.744 428.353 947.548 428.298C947.352 428.243 947.168 428.146 947.01 428.011C946.744 427.722 946.576 427.349 946.531 426.95C946.487 426.55 946.569 426.147 946.765 425.801C947.057 425.262 947.4 424.754 947.79 424.287C948.424 423.515 949.016 422.773 949.608 422.031C950.661 420.76 951.353 420.018 951.44 420.078C951.059 420.91 950.574 421.684 949.997 422.38L948.381 424.787C948.04 425.215 947.731 425.671 947.458 426.149C947.346 426.342 947.295 426.567 947.31 426.792C947.326 427.017 947.408 427.232 947.544 427.406C947.804 427.663 948.352 427.557 948.828 427.315C949.302 427.058 949.76 426.77 950.199 426.452C950.949 425.891 951.667 425.284 952.349 424.635C952.922 423.965 953.572 423.37 954.282 422.864Z" fill="#D78776"/>
<path d="M954.874 427.194C954.946 427.194 954.874 427.875 954.196 428.708C953.99 428.966 953.737 429.177 953.452 429.331C953.167 429.484 952.856 429.576 952.536 429.601C952.123 429.605 951.721 429.461 951.397 429.192C951.218 429.035 951.074 428.838 950.977 428.615C950.88 428.393 950.831 428.15 950.834 427.905C950.948 427.134 951.246 426.405 951.7 425.786C952.004 425.286 952.336 424.806 952.695 424.348C953.316 423.56 953.763 423.152 953.849 423.227C953.936 423.303 953.619 423.818 953.128 424.741C952.839 425.271 952.551 425.756 952.291 426.255C951.943 426.789 951.703 427.392 951.584 428.027C951.595 428.284 951.701 428.526 951.878 428.704C952.055 428.882 952.291 428.981 952.536 428.98C953.015 428.964 953.472 428.765 953.821 428.42C954.47 427.694 954.773 427.133 954.874 427.194Z" fill="#D78776"/>
<path d="M932.178 425.014C932.178 425.014 894.332 464.089 889.022 464.376C882.962 464.679 864.32 436.944 864.32 436.944C852.388 417.626 836.646 414.507 830.904 414.023V411.631L802.696 409.208C802.696 409.208 802.696 411.752 802.696 413.977H790.244C790.244 413.977 767.88 412.902 764.532 444.423L780.606 457.76L787.199 483.497C789.494 492.46 781.298 506.736 777.388 529.854C776.785 533.708 777.398 537.663 779.134 541.118L860.583 550.944L856.255 485.602L854.942 470.462C861.651 480.076 873.699 493.671 888.459 493.368C913.637 492.869 948.612 437.352 948.612 437.352L932.178 425.014Z" fill="#E0E0E0"/>
<path d="M821.41 411.207C821.55 412.55 821.55 413.905 821.41 415.249C821.199 418.612 820.765 421.956 820.111 425.256L820.01 425.756L819.577 425.513C818.596 424.968 817.572 424.393 816.533 423.757C812.493 421.259 809.044 418.686 806.433 416.899C805.023 415.999 803.664 415.013 802.364 413.947C802.796 414.079 803.208 414.273 803.59 414.522C804.341 414.961 805.423 415.597 806.721 416.43C809.347 418.095 812.839 420.608 816.821 423.076C817.831 423.697 818.841 424.287 819.823 424.832L819.289 425.09C820.126 421.184 820.53 417.686 820.833 415.203C820.948 413.86 821.14 412.525 821.41 411.207Z" fill="#FAFAFA"/>
<path d="M830.99 414.189C830.809 415.49 830.539 416.775 830.182 418.035C829.908 419.231 829.62 420.654 829.129 422.198C828.874 423.014 828.57 423.813 828.22 424.59C828.119 424.869 827.937 425.107 827.701 425.271C827.536 425.377 827.343 425.421 827.151 425.396C826.96 425.372 826.782 425.279 826.647 425.135C826.377 424.717 826.159 424.264 825.998 423.788C824.555 420.351 823.415 417.232 822.578 414.946C822.052 413.749 821.651 412.495 821.381 411.207C822.055 412.32 822.62 413.502 823.069 414.734C824.036 416.96 825.32 420.048 826.691 423.485C826.824 423.867 826.988 424.237 827.181 424.59C827.253 424.59 827.181 424.59 827.311 424.59C827.42 424.498 827.504 424.378 827.556 424.242C827.902 423.497 828.21 422.734 828.48 421.956C828.985 420.442 829.331 419.049 829.663 417.883C829.95 416.596 830.396 415.354 830.99 414.189Z" fill="#FAFAFA"/>
<path d="M825.738 519.923C825.669 519.569 825.631 519.209 825.623 518.848C825.623 518.061 825.565 517.051 825.45 515.82C825.334 513.034 825.161 509.174 824.959 504.435C824.613 494.746 824.122 481.499 823.603 466.874C823.083 452.25 822.752 439.003 822.463 429.313C822.362 424.56 822.275 420.699 822.203 417.913C822.203 416.642 822.203 415.612 822.203 414.886C822.166 414.523 822.166 414.158 822.203 413.796C822.27 414.15 822.304 414.51 822.304 414.87C822.304 415.658 822.42 416.687 822.492 417.898C822.607 420.669 822.78 424.529 822.982 429.268C823.329 438.957 823.805 452.204 824.339 466.829C824.873 481.454 825.176 494.701 825.479 504.405C825.58 509.144 825.666 513.004 825.738 515.79C825.738 517.077 825.738 518.106 825.738 518.893C825.772 519.236 825.772 519.581 825.738 519.923Z" fill="#F5F5F5"/>
<path d="M820.602 420.775L822.968 427.618L825.002 420.275L821.842 412.917L820.602 420.775Z" fill="#0052D4"/>
<path d="M823.401 425.574L821.843 502.603L832.924 526.917L837.296 499.56L823.401 425.574Z" fill="#0052D4"/>
<path d="M889.426 473.899C889.426 473.899 889.426 474.126 889.426 474.505L889.339 475.08L889.094 474.505C888.536 472.973 888.214 471.358 888.142 469.721C887.903 467.894 888.112 466.034 888.748 464.316C888.964 464.316 888.748 466.738 888.892 469.675C889.007 471.764 889.325 473.551 889.426 474.414H889.094C889.224 474.005 889.368 473.899 889.426 473.899Z" fill="#FAFAFA"/>
<path d="M892.672 473.642C891.596 472.457 890.796 471.027 890.335 469.463C889.641 468.02 889.261 466.432 889.224 464.815C889.959 466.223 890.558 467.704 891.013 469.236C891.701 470.645 892.257 472.12 892.672 473.642Z" fill="#FAFAFA"/>
<path d="M946.246 441.031C943.125 439.299 940.126 437.336 937.271 435.157C934.28 433.198 931.425 431.017 928.729 428.632C931.849 430.378 934.848 432.351 937.704 434.537C940.695 436.486 943.549 438.657 946.246 441.031Z" fill="#FAFAFA"/>
<path d="M788.931 453.4C788.931 453.4 782.929 497.305 785.771 499.757C801.47 513.61 823.286 520.877 831.077 523.163C832.217 522.875 833.544 522.497 835.074 521.982C836.399 521.54 837.644 520.864 838.753 519.984C840.169 518.941 841.442 517.698 842.533 516.289C842.698 515.987 842.948 515.746 843.249 515.6C843.55 515.453 843.887 515.409 844.214 515.472C844.54 515.535 844.84 515.703 845.071 515.952C845.302 516.202 845.454 516.521 845.506 516.865C845.578 518.379 843.269 522.27 838.926 525.116C838.926 525.116 848.925 541.996 852.114 543.525C855.303 545.054 864.421 549.354 862.878 550.172C861.334 550.989 850.238 547.613 850.238 547.613L827.73 541.3C827.73 541.3 753.278 529.052 758.227 493.217C761.272 471.25 764.59 451.462 765.788 446.451L788.931 453.4Z" fill="#E5BAAB"/>
<path d="M764.533 444.407L757.924 492.263C756.38 506.994 765.788 518.697 778.442 525.282C797.704 535.289 826.301 542.435 826.056 542.39C825.811 542.344 827.989 521.028 827.989 521.028C827.989 521.028 787.892 502.861 786.637 494.988C785.382 487.116 791.73 454.415 791.73 454.415L764.533 444.407Z" fill="#E0E0E0"/>
<path d="M825.998 542.39C825.983 542.264 825.983 542.137 825.998 542.011C825.998 541.708 825.998 541.345 826.07 540.906C826.142 539.862 826.243 538.454 826.388 536.652C826.691 532.897 827.138 527.568 827.672 521.013L827.831 521.285L807.631 511.036L801.859 508.008C799.911 506.918 797.949 505.722 796.001 504.405C794.025 503.067 792.127 501.606 790.316 500.03C789.407 499.227 788.498 498.379 787.633 497.486C787.144 497.037 786.751 496.485 786.478 495.866C786.325 495.566 786.214 495.245 786.146 494.913C786.052 494.597 785.984 494.272 785.944 493.944C785.295 488.705 786.623 483.77 787.387 479.062C788.152 474.353 788.917 469.766 789.638 465.436C791.081 456.746 792.394 448.934 793.491 442.333C794.083 439.409 794.421 436.435 794.501 433.446C794.528 431.198 794.085 428.97 793.202 426.921C792.636 425.629 791.831 424.466 790.836 423.5C790.143 422.849 789.725 422.592 789.739 422.546C790.168 422.773 790.57 423.052 790.937 423.379C791.996 424.317 792.856 425.477 793.462 426.785C794.409 428.865 794.902 431.141 794.905 433.446C794.872 436.462 794.568 439.468 793.996 442.424C792.942 449.04 791.687 456.867 790.302 465.572C789.595 469.917 788.859 474.489 788.094 479.198C787.907 480.379 787.705 481.575 787.503 482.786C787.301 483.997 787.084 485.178 786.926 486.389C786.546 488.837 786.483 491.327 786.738 493.792C786.784 494.094 786.846 494.392 786.926 494.685C786.982 494.976 787.08 495.257 787.214 495.518C787.452 496.053 787.796 496.528 788.224 496.911C789.075 497.789 789.956 498.622 790.85 499.409C792.636 500.97 794.511 502.415 796.463 503.739C798.382 505.056 800.315 506.237 802.234 507.327L808.006 510.355L828.047 520.831L828.206 520.922V521.104C827.556 527.659 827.037 532.973 826.676 536.728C826.474 538.514 826.33 539.937 826.215 540.967C826.157 541.411 826.114 541.774 826.085 542.057C826.066 542.17 826.037 542.282 825.998 542.39Z" fill="#FAFAFA"/>
<path d="M822.276 518.106C822.318 519.203 822.236 520.3 822.03 521.376C821.785 523.375 821.381 526.13 820.847 529.158C820.313 532.186 819.707 534.911 819.217 536.864C819.019 537.941 818.684 538.984 818.221 539.968C818.271 538.873 818.431 537.787 818.697 536.728C819.12 534.447 819.601 531.873 820.14 529.007C820.645 525.332 821.358 521.692 822.276 518.106Z" fill="#FAFAFA"/>
<path d="M825.998 542.39C825.758 542.388 825.519 542.348 825.291 542.269L823.314 541.769L816.1 539.771C809.997 538.045 801.513 535.774 792.423 532.277C788.145 530.635 783.98 528.688 779.956 526.448C776.669 524.613 773.533 522.497 770.578 520.12C768.584 518.518 766.704 516.768 764.951 514.881C764.33 514.215 763.883 513.685 763.508 513.368C763.336 513.189 763.19 512.985 763.075 512.762C763.075 512.762 763.796 513.474 765.095 514.73C766.924 516.517 768.851 518.19 770.866 519.741C773.85 521.993 776.984 524.017 780.245 525.797C784.258 527.985 788.403 529.897 792.653 531.52C801.686 535.002 810.155 537.348 816.215 539.226L823.43 541.451L825.377 542.102C825.595 542.17 825.804 542.266 825.998 542.39Z" fill="#FAFAFA"/>
<path d="M826.489 523.223C826.497 523.494 826.429 523.761 826.292 523.991C826.155 524.22 825.957 524.402 825.721 524.512C825.486 524.623 825.224 524.657 824.97 524.611C824.715 524.565 824.48 524.44 824.294 524.253C824.107 524.066 823.978 523.825 823.923 523.561C823.867 523.296 823.888 523.021 823.983 522.769C824.078 522.517 824.242 522.3 824.454 522.147C824.666 521.993 824.918 521.909 825.176 521.906C825.515 521.902 825.843 522.038 826.088 522.284C826.334 522.53 826.477 522.867 826.489 523.223Z" fill="#FAFAFA"/>
<defs>
<filter id="filter0_d" x="677.96" y="154" width="712" height="740" filterUnits="userSpaceOnUse" color-interpolation-filters="sRGB">
<feFlood flood-opacity="0" result="BackgroundImageFix"/>
<feColorMatrix in="SourceAlpha" type="matrix" values="0 0 0 0 0 0 0 0 0 0 0 0 0 0 0 0 0 0 127 0"/>
<feOffset dy="10"/>
<feGaussianBlur stdDeviation="10"/>
<feColorMatrix type="matrix" values="0 0 0 0 0.160784 0 0 0 0 0.160784 0 0 0 0 0.164706 0 0 0 0.07 0"/>
<feBlend mode="normal" in2="BackgroundImageFix" result="effect1_dropShadow"/>
<feBlend mode="normal" in="SourceGraphic" in2="effect1_dropShadow" result="shape"/>
</filter>
<linearGradient id="paint0_linear" x1="688.552" y1="514" x2="1369.96" y2="514" gradientUnits="userSpaceOnUse">
<stop stop-color="#0052D4"/>
<stop offset="0.489583" stop-color="#4364F7"/>
<stop offset="1" stop-color="#6FB1FC"/>
</linearGradient>
</defs>
</svg>
